<?xml version="1.0" encoding="UTF-8"?>
<svg id="Layer_1" data-name="Layer 1" xmlns="http://www.w3.org/2000/svg" width="256" height="256" viewBox="0 0 256 256">
  <path d="M78.05,133.42c-1.61,0-2.77-.46-3.87-1.52-1.04-1.01-1.49-2.19-1.49-3.95,0-.78,.14-1.49,.43-2.17,.3-.71,.69-1.3,1.19-1.8,.53-.53,1.12-.93,1.8-1.24,.58-.26,1.22-.38,1.95-.38h99.68c1.61,0,2.74,.46,3.79,1.55,1.09,1.13,1.57,2.37,1.57,4.04,0,1.76-.45,2.99-1.47,3.99-1.06,1.04-2.23,1.49-3.89,1.49H78.05Zm141.57,33.68c4.95-2.19,9.35-5.24,13.07-9.09,3.71-3.83,6.67-8.35,8.8-13.44,2.15-5.12,3.24-10.71,3.24-16.62s-1.09-11.39-3.24-16.51c-2.14-5.09-5.1-9.61-8.8-13.44-3.72-3.84-8.12-6.9-13.07-9.09-4.99-2.2-10.38-3.32-16.02-3.32h-35.1c-7.69,0-14.81,1.98-21.16,5.88-6.32,3.88-11.33,9.2-14.87,15.8l-3.17,5.89h74.3c1.89,0,3.6,.37,5.21,1.13,1.7,.8,3.22,1.89,4.53,3.23,1.28,1.31,2.3,2.89,3.04,4.68,.75,1.82,1.11,3.7,1.11,5.74s-.37,4.06-1.11,5.85c-.74,1.81-1.78,3.42-3.07,4.77-1.31,1.37-2.76,2.41-4.45,3.18-1.62,.74-3.34,1.1-5.26,1.1h-74.31l3.18,5.9c1.74,3.23,3.9,6.21,6.42,8.85,2.51,2.64,5.36,4.94,8.45,6.84,3.1,1.9,6.48,3.39,10.03,4.43,3.57,1.04,7.31,1.57,11.13,1.57h35.1c5.64,0,11.03-1.12,16.02-3.32Zm-16.02-16.25c3.04,0,5.93-.61,8.58-1.82,2.59-1.18,4.92-2.84,6.92-4.93,1.99-2.08,3.57-4.52,4.69-7.27,1.13-2.76,1.71-5.75,1.71-8.89s-.57-6.01-1.71-8.77c-1.13-2.75-2.72-5.19-4.72-7.24-1.98-2.02-4.27-3.66-6.83-4.87-2.67-1.26-5.57-1.9-8.63-1.9h-60.1c2.27-2.69,4.96-5,8.02-6.88,5.14-3.16,10.7-4.7,16.98-4.7h35.1c4.51,0,8.82,.89,12.78,2.64,4.01,1.77,7.56,4.24,10.55,7.34,3.01,3.11,5.42,6.8,7.17,10.97,1.73,4.14,2.61,8.65,2.61,13.42s-.88,9.39-2.61,13.53c-1.75,4.17-4.16,7.86-7.17,10.97-3,3.1-6.55,5.57-10.55,7.34-3.96,1.75-8.27,2.64-12.78,2.64h-35.1c-3.06,0-6.05-.42-8.9-1.25-2.87-.83-5.59-2.03-8.08-3.56-2.51-1.54-4.81-3.4-6.85-5.54-.38-.4-.75-.81-1.11-1.23h60.04Zm-105.08,18.01c3.56-1.04,6.93-2.53,10-4.44,3.05-1.9,5.87-4.19,8.38-6.83,2.52-2.65,4.68-5.62,6.42-8.85l3.18-5.9H52.17c-1.91,0-3.63-.36-5.26-1.1-1.67-.76-3.16-1.83-4.45-3.17-1.31-1.37-2.32-2.93-3.07-4.77-.73-1.79-1.11-3.76-1.11-5.85s.36-3.92,1.11-5.74c.74-1.8,1.76-3.37,3.04-4.68,1.31-1.34,2.83-2.42,4.53-3.23,1.61-.76,3.31-1.13,5.21-1.13H126.48l-3.17-5.89c-3.54-6.59-8.5-11.91-14.74-15.79-6.28-3.91-13.41-5.89-21.18-5.89H52.17c-5.64,0-11.01,1.12-15.97,3.33-4.92,2.19-9.28,5.25-12.96,9.1-3.66,3.83-6.6,8.34-8.73,13.42-2.15,5.12-3.24,10.67-3.24,16.51s1.09,11.5,3.24,16.62c2.13,5.08,5.07,9.6,8.73,13.43,3.68,3.85,8.05,6.91,12.96,9.1,4.96,2.21,10.33,3.33,15.97,3.33h35.21c3.81,0,7.56-.53,11.13-1.57Zm-11.13-75.27c6.26,0,11.96,1.58,16.95,4.68,3.03,1.88,5.68,4.19,7.95,6.89H52.17c-3.06,0-5.96,.64-8.63,1.9-2.56,1.21-4.86,2.85-6.83,4.87-2,2.05-3.59,4.49-4.72,7.24-1.13,2.76-1.71,5.71-1.71,8.77s.57,6.13,1.7,8.88c1.12,2.74,2.7,5.19,4.69,7.27,1.99,2.09,4.32,3.75,6.91,4.93,2.65,1.21,5.54,1.82,8.58,1.82h60.04c-.36,.42-.73,.83-1.11,1.23-2.04,2.14-4.33,4.01-6.81,5.55-2.45,1.52-5.14,2.72-8,3.55-2.84,.83-5.84,1.25-8.89,1.25H52.17c-4.51,0-8.79-.89-12.72-2.64-3.96-1.76-7.47-4.23-10.44-7.32-2.98-3.12-5.38-6.81-7.13-10.99-1.73-4.13-2.61-8.68-2.61-13.53s.88-9.28,2.61-13.42c1.75-4.18,4.15-7.87,7.13-10.99,2.96-3.09,6.47-5.56,10.44-7.32,3.93-1.75,8.21-2.64,12.72-2.64h35.21Z"/>
</svg>