<?xml version="1.0" encoding="UTF-8"?>
<svg id="Layer_1" data-name="Layer 1" xmlns="http://www.w3.org/2000/svg" width="256" height="256" viewBox="0 0 256 256">
  <path d="M158.09,73.98h60.92l-30.46,54.02,30.46,54.17h-60.92l-30.01,53.42-30.16-53.42H36.99l30.46-54.17-30.46-54.02h60.92l30.16-53.57,30.01,53.57Zm-82.68,40.22l14.86-26.41h-29.56l14.71,26.41Zm14.86,54.02l-14.86-26.41-14.71,26.41h29.56Zm60.17,0l22.51-40.22-22.51-40.22h-44.87l-22.36,40.22,22.36,40.22h44.87Zm-7.65-94.24l-14.71-26.41-14.86,26.41h29.56Zm-14.71,134.6l14.71-26.41h-29.56l14.86,26.41Zm67.23-120.8h-29.56l14.86,26.41,14.71-26.41Zm0,80.43l-14.71-26.41-14.86,26.41h29.56Z"/>
</svg>